<svg width="350" height="400" viewBox="0 0 350 400" fill="none" xmlns="http://www.w3.org/2000/svg">
<path fill-rule="evenodd" clip-rule="evenodd" d="M13.2324 0H349.7V142.469C347.418 250.251 281.344 346.435 181.427 387.425C81.5355 346.418 15.4925 250.234 13.2324 142.469V0Z" fill="white"/>
<path fill-rule="evenodd" clip-rule="evenodd" d="M337.027 11.8555L337.027 154.113C335.887 207.962 318.811 258.915 289.541 301.525C260.284 344.114 218.844 378.369 168.95 398.844C119.083 378.352 77.6638 344.096 48.4243 301.512C19.167 258.903 2.10425 207.954 0.975098 154.117V11.8555H337.027Z" stroke="#DDDDDD" stroke-width="0.414602"/>
<path d="M181.846 108.899C218.51 109.124 248.186 138.888 248.336 175.551C248.336 212.438 218.435 242.277 181.471 242.277C144.507 242.277 114.605 212.363 114.605 175.551C114.605 159.281 120.991 143.612 130.758 131.991L130.758 170.433C130.753 171.811 130.683 175.26 130.683 175.551C130.683 203.516 153.372 226.158 181.396 226.158C209.419 226.158 232.108 203.516 232.108 175.551C232.108 147.735 209.644 125.168 181.846 124.943V108.899ZM164.191 149.01C164.191 149.01 169.878 146.657 172.19 145.807L172.455 145.711C191.613 139.263 211.072 151.559 214.002 171.427C214.077 172.102 214.152 172.777 214.227 173.451C215.88 192.42 202.432 202.091 198.901 204.116V176.975C198.901 167.304 191.012 159.431 181.32 159.431L180.988 159.434C173.469 159.573 167.086 164.403 164.717 171.127L164.491 171.802C164.041 173.376 163.74 175.176 163.74 176.975V203.666L157.88 197.518C152.02 191.37 148.714 183.273 148.714 174.801V117.486C153.522 114.737 158.706 112.599 164.191 111.148V149.01Z" fill="#FF366C"/>
</svg>
