<svg width="294" height="267" viewBox="0 0 294 267" fill="none" xmlns="http://www.w3.org/2000/svg">
<path d="M180.118 1.23203C183.504 2.33023 188.355 2.60477 198.422 2.51328C218.922 2.33023 227.25 4.89273 240.52 15.3258C243.54 17.7052 248.574 21.1829 251.594 23.0133C257.176 26.2164 262.942 31.799 262.942 33.9039C262.942 34.5445 264.681 36.0088 266.694 37.2901C275.205 42.5066 284.357 55.0445 289.665 68.7722C293.051 77.2834 293.234 78.5646 293.326 87.991C293.509 104.098 289.299 115.08 278.958 125.513C268.616 136.038 254.797 143.542 240.062 146.654C236.493 147.386 231.277 148.942 228.44 150.132C223.406 152.145 223.406 152.145 221.393 158.551C214.437 180.699 203.364 190.4 188.172 187.562C185.243 187.013 178.105 186.556 172.248 186.647L161.54 186.739L160.991 190.033C159.161 201.748 145.89 215.75 136.739 215.75C134.085 215.75 133.902 215.933 134.908 217.672C135.457 218.77 135.732 221.79 135.549 224.444C135.183 228.379 133.719 231.674 127.678 242.382C123.652 249.612 119.533 258.123 118.618 261.234C117.703 264.437 116.605 267 116.239 267C115.781 267 115.69 266.268 115.964 265.353C116.239 264.529 116.879 261.967 117.428 259.679C118.069 257.391 121.821 249.154 125.848 241.375C131.522 230.484 133.261 226.275 133.261 223.437C133.261 216.848 128.319 212.089 124.841 215.201C123.926 216.025 122.004 219.502 120.632 222.888C119.167 226.275 116.971 230.667 115.69 232.681C113.127 236.616 106.721 240.46 102.786 240.46H100.498L100.772 250.344C100.955 255.743 100.681 261.6 100.132 263.339C99.3994 265.902 99.3079 264.712 99.674 257.665C100.315 247.507 99.5824 241.741 97.6606 241.009C97.0199 240.734 91.9865 241.375 86.5869 242.29C72.7677 244.853 63.3413 244.761 57.3011 241.924C49.0645 238.08 40.9194 229.112 39.2721 222.065C38.6315 219.228 40.0043 214.286 42.0177 211.998C44.0311 209.71 44.3971 201.748 42.3837 202.571C36.8011 204.768 30.0288 203.121 27.2833 198.911C26.4596 197.629 25.7275 195.158 25.636 193.42C25.5444 190.491 25.3614 190.308 23.165 190.766C21.4261 191.04 19.9619 190.583 18.04 188.935C15.752 186.922 15.386 185.915 15.2029 181.522C15.1114 177.038 14.7453 176.214 11.9083 173.652C7.42389 169.808 3.48862 163.219 1.56674 156.721C-1.91092 144.915 0.651581 119.839 6.78326 105.471C8.33908 101.902 10.9931 93.5736 12.7319 86.8013C18.3145 64.837 23.348 57.6986 34.8793 55.136C36.5266 54.8615 37.6248 54.2209 37.4418 53.8548C37.1672 53.4887 37.7163 51.5669 38.6315 49.645C41.2855 43.7878 47.6918 38.7543 59.1315 33.3548C64.8056 30.6093 72.4931 26.1249 76.1538 23.2878C86.5869 15.4173 90.7052 14.136 105.806 13.8615L118.527 13.5869L122.919 9.46863C130.241 2.60477 138.935 1.96414 146.44 7.63828L149.277 9.83469L151.107 6.81461C152.022 5.07578 154.493 2.97086 156.415 2.05566C161.174 -0.323792 173.803 -0.68988 180.118 1.23203ZM158.154 4.34363C154.219 6.2655 150.558 11.1159 152.297 12.1226C152.846 12.4887 155.957 11.9396 159.344 10.9329C174.17 6.44852 178.379 5.25879 179.478 5.25879C181.674 5.25879 180.484 3.51996 178.013 3.1539C170.692 2.05566 161.815 2.60477 158.154 4.34363ZM191.558 4.70969C191.558 4.98425 194.212 6.54004 197.598 8.2789C202.082 10.7499 206.201 11.9396 214.712 13.4954C227.982 15.7834 237.774 17.7968 240.978 18.6204C242.716 19.078 242.442 18.6204 239.422 16.424C230.819 10.0177 222.857 6.54004 214.071 5.25879C208.946 4.52664 191.558 4.06906 191.558 4.70969ZM180.118 7.18066C173.712 8.828 173.529 9.10254 177.83 10.2008C180.118 10.7499 185.243 11.0244 189.27 10.8414L196.591 10.5668L192.016 8.37039C186.891 5.89941 185.335 5.80789 180.118 7.18066ZM129.783 7.91281C126.489 9.46863 121.181 14.0445 122.096 14.5936C122.279 14.7767 123.652 15.5088 125.207 16.241C126.763 17.0646 128.777 19.261 129.875 21.4575L131.797 25.3012L134.908 22.0066C138.478 18.2543 144.152 15.4173 148.087 15.3258H150.832L147.538 12.0311C144.335 8.828 138.844 6.2655 135.274 6.2655C134.268 6.2655 131.797 6.99765 129.783 7.91281ZM161.265 13.5869L154.951 15.5088L159.344 17.7052C164.011 19.9932 167.306 24.386 166.574 27.2231C166.207 28.6874 167.123 29.4195 170.875 31.1584C173.529 32.3481 177.19 34.7276 179.111 36.4664L182.589 39.4865L187.074 34.8191C189.453 32.2566 191.741 29.145 192.107 27.7722C193.388 22.4642 188.629 16.8816 179.935 13.4954C174.17 11.2075 168.953 11.2075 161.265 13.5869ZM190.094 16.424C195.768 21.9151 196.317 25.3012 192.565 33.2633C188.995 40.7677 188.904 43.4218 192.107 44.6115C196.225 46.2588 206.384 45.6182 215.444 43.2387C220.112 42.049 225.328 40.9508 226.884 40.9508C229.538 40.9508 229.812 40.6762 230.27 37.0155C230.453 34.9106 231.002 32.4396 231.368 31.5244C231.734 30.6093 231.643 29.9686 230.911 29.9686C228.714 29.9686 215.81 23.3793 209.038 18.8035C201.991 13.953 198.788 12.9463 190.368 12.6718L186.067 12.5802L190.094 16.424ZM209.862 16.3325C211.143 17.3392 216.634 20.3593 222.216 23.1048C231.277 27.6807 232.649 28.0468 236.402 27.5892C239.696 27.1316 242.442 27.6807 250.038 30.3347C255.254 32.1651 259.739 33.5378 259.922 33.3548C260.562 32.7142 253.79 27.3146 249.946 25.3012C243.449 22.0066 236.493 19.9932 225.053 18.0713C218.922 17.0646 212.699 15.8749 211.234 15.4173C207.391 14.2276 207.299 14.2276 209.862 16.3325ZM89.0579 18.895C86.3123 19.9932 80.9128 23.1048 77.1605 25.9418C73.4083 28.7789 65.2632 33.4463 59.223 36.3749C51.444 40.0356 46.9596 42.7811 44.3056 45.5267C42.2922 47.6316 40.5534 49.7365 40.5534 50.1941C40.5534 50.6517 43.2989 49.0959 46.6851 46.7164C54.7386 41.2253 63.5244 37.107 67.6427 37.0155C70.2052 36.924 71.2119 36.3749 72.6762 33.9039C76.6114 27.5892 91.6204 23.3793 96.1048 27.4061C98.2097 29.328 99.1248 29.511 99.1248 27.8637C99.1248 26.2164 104.524 19.9932 107.728 17.8883L110.565 16.0579L102.328 16.5155C97.0199 16.7901 92.261 17.6137 89.0579 18.895ZM144.518 18.2543C142.138 18.9865 139.118 20.9999 136.373 23.8369L131.98 28.3213L135.091 31.3414C137.013 33.2633 138.569 35.9173 139.301 38.5713C140.216 42.4151 140.674 42.8727 146.623 45.9843C156.964 51.4753 162.089 56.6003 164.103 63.8303C164.652 65.7521 164.835 65.4776 165.475 61.5423C166.574 54.4039 169.96 48.7298 175.634 44.3369L180.576 40.4932L178.105 38.3883C176.64 37.1985 173.529 35.0936 171.058 33.6293C167.214 31.4329 165.841 31.0668 162.181 31.5244C158.795 31.8905 156.873 31.5244 152.571 29.6026C148.819 27.8637 147.629 26.857 148.27 26.2164C149.002 25.4843 151.29 25.6673 156.324 26.674C164.926 28.4128 165.018 28.4128 165.018 26.857C165.018 24.6606 161.174 20.6338 157.33 18.895C152.937 16.8816 149.734 16.6985 144.518 18.2543ZM111.663 18.6204C103.243 22.9218 98.7588 31.4329 101.87 37.3816C103.518 40.3102 106.08 39.395 112.395 33.6293C118.527 28.1383 122.279 26.5825 127.038 27.4061C128.594 27.7722 129.326 27.4977 129.326 26.5825C129.326 24.4776 126.763 20.0847 124.567 18.6204C121.913 16.6985 115.415 16.7901 111.663 18.6204ZM154.493 28.5959C155.957 29.328 158.428 29.8771 159.984 29.8771C162.638 29.7856 162.547 29.6941 159.069 28.5959C154.036 26.857 150.832 26.9485 154.493 28.5959ZM83.5668 28.6874C77.069 30.6093 71.0288 36.2834 72.4931 39.0289C73.0422 40.0356 73.4998 41.866 73.4998 43.0557V45.3436L79.0824 43.0557C82.3771 41.6829 87.5021 40.5847 91.4373 40.3102C97.8436 39.761 98.2097 39.6695 98.2097 37.5646C98.2097 33.9954 95.7387 29.0535 93.4507 28.1383C90.4306 26.9485 89.0579 27.0401 83.5668 28.6874ZM238.69 29.9686C239.696 30.4262 241.344 30.7923 242.35 30.7923C244.181 30.7923 244.181 30.7923 242.35 29.9686C241.344 29.511 239.696 29.145 238.69 29.145C236.859 29.145 236.859 29.145 238.69 29.9686ZM116.513 34.0869C113.951 36.3749 110.839 38.9374 109.558 39.761L107.178 41.3168L110.565 42.5066C116.879 44.703 122.645 49.7365 125.39 55.5936C127.495 60.078 128.319 60.9932 130.332 60.9932C135.64 61.1762 140.216 68.0401 138.935 73.9887C138.569 75.5445 137.288 79.1137 136.007 81.9508C133.169 88.4486 133.444 91.6517 136.922 92.0178C140.216 92.3838 143.969 90.0044 143.969 87.3504C144.06 83.5981 149.185 64.3794 150.283 64.0133C152.937 63.0981 154.402 75.8191 152.205 81.4017C151.565 83.049 150.009 85.703 148.819 87.3504C146.44 90.5535 146.897 93.116 150.192 96.1361C154.676 100.254 166.482 101.719 169.594 98.6071C171.699 96.5022 171.424 94.5803 168.221 87.1673C167.031 84.6048 165.018 77.924 163.645 72.2499C160.625 59.7119 158.154 56.0512 149.46 50.9262C138.02 44.3369 138.111 44.4285 136.83 39.8526C135.183 33.8124 130.607 29.9686 125.207 29.9686C121.73 29.9686 120.54 30.5177 116.513 34.0869ZM233.29 32.5311C233.016 32.9887 232.558 35.0936 232.192 37.107C231.643 40.8593 231.643 40.9508 234.205 40.9508C235.67 41.0423 237.866 41.5914 239.056 42.232C240.795 43.2387 241.801 43.1472 245.004 42.049C248.665 40.6762 249.031 40.7677 253.79 42.9642C256.536 44.2454 261.478 47.6316 264.681 50.3771C267.884 53.2142 273.283 57.241 276.761 59.2544C280.147 61.2678 283.259 63.3727 283.533 63.8303C283.808 64.3794 284.449 64.7454 284.906 64.7454C286.096 64.7454 280.971 56.3258 276.029 49.9195C271.179 43.7878 263.491 37.5646 259.19 36.2834C257.451 35.8258 251.96 34.8191 247.018 33.9954C241.984 33.2633 237.683 32.4396 237.408 32.2566C236.676 31.5244 233.839 31.7075 233.29 32.5311ZM185.609 39.1204L183.596 40.9508L185.975 45.7097C187.623 49.0043 188.446 52.3905 188.629 56.6919C188.995 61.8169 189.27 62.9151 190.551 62.9151C191.466 62.9151 193.297 64.1048 194.761 65.6606L197.324 68.4061L198.33 66.3012C199.978 63.1896 203.272 61.9084 208.489 62.549C213.614 63.1896 215.719 64.1048 218.83 66.8503C220.478 68.4061 222.125 68.7722 226.792 68.8637C233.748 68.8637 236.859 70.6941 239.605 76.4597C241.069 79.3883 241.984 80.212 243.815 80.3035C245.096 80.3035 248.208 80.9441 250.678 81.6762C256.078 83.3236 261.02 83.4151 262.942 81.8593C265.779 79.6629 267.518 76.1852 267.518 72.7075C267.518 69.7789 266.877 68.4977 264.04 65.6606C260.654 62.2744 257.634 60.9932 246.011 58.3392C239.513 56.8749 237.958 55.136 238.507 50.3771C238.873 46.7164 238.781 46.4418 236.676 46.4418C235.487 46.4418 233.473 45.3436 232.1 44.0624C229.446 41.4084 227.25 41.4999 214.987 45.1606C206.75 47.6316 194.486 48.0892 190.643 46.1673C188.721 45.1606 188.355 44.3369 188.355 41.1338C188.355 39.0289 188.172 37.2901 187.989 37.2901C187.714 37.2901 186.707 38.1137 185.609 39.1204ZM59.3145 41.6829C54.098 44.2454 41.4686 52.7566 41.4686 53.6718C41.4686 54.0378 45.6784 53.9463 50.8034 53.5802C59.223 53.0311 60.7788 52.6651 65.3547 49.9195C71.944 46.0758 72.7677 44.886 71.1204 41.0423C69.9306 38.2968 69.6561 38.1137 66.9105 38.6628C65.2632 39.0289 61.7855 40.4017 59.3145 41.6829ZM232.741 42.4151C232.741 42.8727 238.507 45.5267 239.605 45.5267C240.886 45.5267 239.788 43.8793 237.958 42.9642C235.761 41.866 232.741 41.5914 232.741 42.4151ZM89.0579 43.1472C85.3056 43.8793 80.2722 45.1606 77.8927 46.1673L73.5913 47.8146H82.011C90.1561 47.8146 90.9798 47.9977 98.4842 51.7499C99.0333 52.0244 98.8503 43.7878 98.3012 42.049C98.1181 41.6829 95.9217 41.9575 89.0579 43.1472ZM176.183 46.3503C170.875 50.5602 168.312 55.4106 166.848 64.0133C165.933 69.3213 166.024 70.8771 167.672 76.8258C170.326 86.4352 172.797 91.6517 176.457 94.7633C183.23 100.803 195.219 100.987 199.886 95.1294C201.533 93.116 201.716 91.8347 201.35 87.6249C200.527 78.1071 193.846 65.6606 189.636 65.6606C187.257 65.6606 186.616 74.8124 188.263 83.1405C189.087 86.8013 189.453 90.0044 189.178 90.2789C188.172 91.3772 184.145 85.2454 182.772 80.395C180.942 74.4463 181.491 69.1383 184.236 65.3861C186.067 63.0066 186.25 61.8169 185.884 56.1427C185.426 50.1941 182.955 42.7811 181.399 42.7811C181.033 42.7811 178.654 44.4285 176.183 46.3503ZM101.321 49.645C101.687 53.3972 101.779 56.5088 101.504 56.5088C101.23 56.5088 99.1248 55.3191 96.7454 53.7633C91.8949 50.7432 83.9329 48.8213 79.6315 49.645C78.0757 49.9195 73.4083 51.2923 69.3815 52.5735C62.9753 54.6785 61.2364 55.6852 55.8369 60.9017C49.8882 66.6673 48.3324 69.2298 52.6337 66.2097C55.1047 64.4709 61.3279 64.2878 66.3614 65.8436C69.3815 66.7588 71.0288 66.5758 76.5199 65.203C85.3056 62.8236 92.1695 62.9151 96.9284 65.4776C101.596 67.857 104.067 70.7856 109.832 80.395C114.5 88.2655 117.062 90.3705 122.187 90.3705C123.835 90.3705 126.763 90.7365 128.594 91.1941L132.071 92.0178V88.9977C132.071 87.3504 132.895 83.9642 133.993 81.4932C138.203 71.8838 138.02 67.5825 133.261 63.8303C129.783 61.0847 128.685 61.5423 128.044 65.8436C127.221 70.6941 123.377 77.5579 121.364 77.5579C118.71 77.5579 120.54 69.8704 124.75 63.1896C128.594 57.241 113.402 43.0557 102.877 42.8727C100.681 42.7811 100.681 42.8727 101.321 49.645ZM245.279 44.7945C242.35 46.2588 241.069 48.3637 240.978 51.2923C240.978 54.3124 242.35 55.0445 251.868 56.9664C264.589 59.5289 270.904 65.3861 270.08 73.8972L269.623 78.2901L271.911 76.8258C273.1 76.0937 275.114 73.8057 276.304 71.8838C277.768 69.6874 278.958 68.6807 279.873 68.9553C282.344 69.962 284.906 75.3615 285.73 81.5847C286.187 85.0624 286.828 87.991 287.103 88.2655C287.286 88.5401 288.201 87.4419 289.024 85.7946C290.946 82.1338 290.214 76.8258 287.103 71.4262C285.364 68.4977 282.893 66.3928 277.127 62.8236C272.826 60.1695 266.786 55.7767 263.583 53.0311C258.641 48.7298 250.312 43.6963 248.024 43.6963C247.567 43.6963 246.377 44.1539 245.279 44.7945ZM42.1092 56.8749C32.9574 57.607 26.7342 60.7186 23.165 66.3012C20.511 70.4195 15.6605 84.0557 14.3792 90.9196L13.8301 93.9397L16.5757 92.933C19.0467 92.0178 19.3212 91.4687 19.7788 86.7097C20.2364 80.8526 23.165 73.7142 26.1851 70.4195C30.6694 65.5691 38.3569 64.0133 42.9328 67.0334C44.2141 67.857 45.5869 68.2231 45.9529 67.7655C46.319 67.3995 48.973 64.4709 51.9016 61.3593L57.2096 55.6852L52.8168 56.0512C50.3458 56.2343 45.4953 56.6919 42.1092 56.8749ZM124.384 65.8436C122.736 68.3146 120.906 75.9106 122.096 75.1785C123.377 74.4463 125.299 70.145 125.94 66.7588C126.672 63.2811 126.214 63.0981 124.384 65.8436ZM200.893 65.8436C200.252 66.4843 199.795 68.1316 199.795 69.5959C199.795 72.1584 207.024 94.1227 209.404 98.6071C211.143 101.993 214.62 104.922 218.007 105.928C225.42 108.033 239.422 102.268 250.312 92.5669L257.451 86.2521L253.516 85.0624C251.411 84.4218 247.75 83.5981 245.279 83.3236L240.978 82.7745V85.7946C240.978 87.8995 240.154 89.5468 237.866 91.8347C231.826 97.8749 229.355 93.8481 234.754 86.7097C236.402 84.5133 238.141 82.2254 238.69 81.5847C239.879 79.9374 237.134 74.3548 234.022 72.3414C232.558 71.4262 229.721 70.7856 226.975 70.6941H222.399L222.216 75.7276C222.033 81.3102 218.556 89.3638 217.091 87.8995C216.634 87.4419 216.085 84.1472 215.993 80.578C215.902 75.453 216.176 73.7142 217.457 72.3414C219.837 69.5959 219.379 68.4977 215.078 66.5758C210.777 64.5624 202.54 64.1963 200.893 65.8436ZM77.9842 67.5825C71.1204 69.1383 69.29 69.3213 66.5445 68.4061C60.9619 66.5758 55.1962 66.9419 50.8949 69.4128C46.9596 71.6093 45.9529 72.982 48.1494 72.982C50.2543 72.982 56.1114 78.5646 58.1248 82.4084C62.4262 90.9196 59.3145 99.0647 51.627 99.0647H48.0578L51.9931 102.451C56.8436 106.752 59.223 111.786 60.5043 120.388C61.0534 124.049 62.1516 128.076 62.8837 129.266C64.8971 132.286 73.0422 134.574 79.9976 134.116C88.8748 133.475 93.1762 128.808 92.9931 120.114C92.8101 114.348 91.8034 111.786 87.5936 106.203C83.5668 100.895 83.3838 100.803 77.5266 99.0647C71.3949 97.2343 69.9306 95.4955 68.8324 88.4486C68.2833 85.0624 66.9105 81.1271 65.7208 79.2053C63.5244 75.9106 62.8837 73.8972 63.8904 73.8972C64.165 73.8972 66.3614 74.9039 68.8324 76.0937C74.598 79.1137 78.1672 83.3236 83.1092 93.2075C87.8681 102.634 92.5356 108.216 96.6539 109.498C98.3012 109.955 102.236 110.687 105.531 110.962C109.924 111.42 113.493 112.609 119.35 115.538C123.652 117.734 129.875 120.022 133.078 120.663C136.281 121.303 142.047 122.951 145.799 124.507C152.48 127.161 152.754 127.161 158.886 125.971C163.645 125.147 166.848 125.056 172.614 125.788C176.732 126.337 180.393 126.612 180.667 126.428C181.766 125.788 180.85 110.047 179.661 107.85C178.105 104.83 173.254 103.183 166.207 103.183C158.52 103.091 154.127 102.176 143.053 97.9664C137.654 95.953 130.973 94.3057 125.299 93.5736C119.442 92.7499 115.415 91.7432 113.951 90.645C112.761 89.7298 109.558 85.2454 106.812 80.7611C101.413 71.9753 97.569 67.9486 93.1762 66.6673C88.8748 65.3861 86.6784 65.4776 77.9842 67.5825ZM28.473 70.7856C24.9038 74.1718 21.3346 81.6762 21.3346 85.7946V88.9977L23.7141 84.8794C28.5645 76.2767 35.2453 71.1517 41.6516 71.1517L44.6717 71.0602L42.3837 69.2298C39.0891 66.3928 32.3168 67.2164 28.473 70.7856ZM183.321 73.4396C183.321 74.4463 183.779 75.9106 184.236 76.6428C184.877 77.6495 185.152 76.7343 185.152 73.4396C185.152 70.145 184.877 69.2298 184.236 70.2365C183.779 70.9687 183.321 72.4329 183.321 73.4396ZM148.453 77.741C146.257 86.2521 146.348 88.0825 148.636 83.5981C150.375 80.3035 152.297 69.0468 150.924 70.4195C150.558 70.6941 149.46 73.9887 148.453 77.741ZM277.127 75.087C276.029 76.7343 272.551 79.5713 269.074 81.5847C265.596 83.5981 258.915 88.6316 254.065 92.8414C249.306 97.0513 243.632 101.536 241.527 102.725C235.578 106.203 227.524 108.674 221.942 108.674C217.824 108.674 217.091 108.949 217.549 110.138C217.824 110.962 218.098 113.158 218.098 115.172C218.098 118.009 218.464 118.741 219.745 118.741C221.667 118.741 224.962 121.944 226.06 124.964L226.884 126.978L229.995 124.598C231.734 123.317 237.408 120.205 242.533 117.734C249.58 114.348 253.516 111.694 258.732 106.844C263.674 102.268 268.158 99.1562 274.748 95.953C279.781 93.3905 284.083 91.0111 284.266 90.645C285.272 88.9062 280.971 71.9753 279.598 72.0669C279.232 72.1584 278.134 73.4396 277.127 75.087ZM218.098 73.8972C217.549 74.9039 217.183 78.1071 217.366 81.0356C217.641 86.2521 217.641 86.2521 218.922 83.5066C221.759 77.1919 221.027 68.4977 218.098 73.8972ZM36.069 84.9709C34.6962 89.0892 36.6181 91.2856 44.1226 94.3057C51.8101 97.4173 54.8302 97.1428 56.8436 92.8414C57.8503 90.828 57.8503 89.6383 56.9351 86.8928C55.2878 81.7678 53.3659 79.3883 48.79 76.4597L44.6717 73.8057L40.8279 78.1071C38.723 80.4865 36.5266 83.5981 36.069 84.9709ZM33.2319 76.6428C30.3034 78.7477 20.2364 92.933 21.2431 93.5736C22.9819 94.5803 23.165 100.62 21.7922 110.138C19.8703 123.134 19.1382 140.797 20.3279 142.536C21.6092 144.458 26.5511 144 32.7744 141.346C35.7944 140.065 40.0043 138.783 42.1092 138.417L46.0444 137.777V131.462C46.0444 123.958 45.0378 121.578 39.1806 115.995C29.6628 106.935 27.1918 99.7053 32.1337 95.1294C34.5132 92.8414 34.6047 92.3838 33.6895 90.0044C32.1337 86.3437 32.8659 84.0557 37.0757 78.4731L40.7364 73.6227L38.1739 74.2633C36.8011 74.6294 34.6047 75.7276 33.2319 76.6428ZM68.9239 80.3035C69.473 81.3102 70.3882 84.8794 71.0288 88.2655C72.2186 94.7633 72.0355 94.5803 79.6315 98.058C81.2789 98.7901 82.6516 99.1562 82.6516 98.9731C82.6516 96.9597 74.7811 83.5981 72.1271 81.4017C68.2833 78.0155 67.5512 77.741 68.9239 80.3035ZM236.402 88.174C235.303 89.9129 234.571 91.5602 234.846 91.8347C235.395 92.3838 239.147 87.2588 239.147 85.8861C239.147 84.1472 238.507 84.7879 236.402 88.174ZM288.658 92.933C291.587 100.62 284.54 106.203 263.125 113.158C249.031 117.734 247.658 118.558 254.522 118.009C264.589 117.277 274.473 121.944 272.643 126.52C271.545 129.449 273.924 127.618 278.591 122.127C286.279 112.975 291.312 100.163 291.312 89.5468C291.312 87.4419 291.221 87.4419 289.574 88.9062C288.109 90.2789 287.926 91.0111 288.658 92.933ZM201.076 97.7834C199.886 99.1562 199.978 99.3392 202.266 99.7968C203.638 100.071 205.56 100.62 206.384 100.895C207.757 101.444 207.665 100.987 205.926 96.8682C204.187 92.5669 203.913 92.2923 203.181 94.2142C202.815 95.3124 201.808 96.9597 201.076 97.7834ZM141.681 93.0245C140.033 93.7566 140.216 93.9397 143.053 95.1294C146.897 96.7767 147.172 96.6852 145.616 94.1227C144.335 92.0178 144.335 92.0178 141.681 93.0245ZM276.304 97.7834C271.179 100.437 264.315 104.83 260.929 107.667C257.634 110.504 254.888 112.884 255.071 112.975C255.437 113.433 277.951 105.013 280.147 103.549C284.815 100.62 286.737 98.3325 286.737 95.6785C286.737 94.3057 286.462 93.116 286.096 93.116C285.73 93.116 281.337 95.2209 276.304 97.7834ZM172.98 98.3325C172.431 101.078 172.614 101.353 174.536 101.353C175.817 101.353 178.013 102.451 179.569 103.732L182.406 106.112L184.145 104.007L185.884 101.81L181.491 100.163C179.111 99.3392 176.457 97.7834 175.542 96.7767C173.62 94.5803 173.712 94.5803 172.98 98.3325ZM34.1471 96.7767C30.5779 100.346 32.4083 105.196 40.7364 113.891C47.7833 121.303 48.973 124.415 48.2409 132.194L47.6003 138.234L53.915 137.685C57.3927 137.319 63.3413 137.045 67.0936 136.953C73.3168 136.862 73.6829 136.77 70.7543 135.946C61.0534 133.201 59.3145 131.187 57.9418 121.395C56.569 111.237 54.1895 107.393 45.2208 100.62C41.011 97.5089 37.1672 94.9464 36.8011 94.9464C36.3436 94.9464 35.1538 95.77 34.1471 96.7767ZM14.6538 97.5089C12.5489 99.7053 12.0913 101.444 10.8101 111.237C8.24756 130.638 8.79666 152.969 11.7253 154.067C12.4574 154.341 15.752 152.694 19.0467 150.406C23.165 147.661 24.6293 146.196 23.348 146.196C22.3413 146.196 20.6025 145.373 19.4128 144.458C17.3078 142.81 17.2163 142.17 17.3078 133.201C17.3994 128.076 18.1315 118.1 18.9551 111.145C20.9685 94.7633 20.0534 91.8347 14.6538 97.5089ZM188.355 102.542C187.348 103 185.609 104.19 184.511 105.196C182.955 106.661 182.681 107.484 183.413 109.315C183.87 110.504 184.236 113.433 184.236 115.812C184.236 126.062 186.524 128.808 195.127 128.808C199.062 128.808 199.886 128.442 204.096 124.324C207.207 121.303 209.953 119.565 212.058 119.199C215.993 118.466 217.091 115.172 215.078 110.321C211.966 102.908 196.5 98.424 188.355 102.542ZM5.8681 116.819C-0.0805664 141.987 1.84131 158.185 12.1828 170.174L15.9351 174.475L20.0534 170.449C25.5444 165.049 35.4284 160.382 45.7699 158.185C56.2029 155.897 58.1248 154.982 64.8971 148.301C67.8257 145.281 71.761 141.712 73.4998 140.339C76.3369 138.051 76.4284 137.868 74.415 138.417C73.1338 138.692 67.4596 139.241 61.7855 139.516L51.444 140.065L53.1828 141.987C57.5757 146.929 55.4708 147.935 50.3458 143.451C46.7766 140.339 44.3056 140.065 38.0824 142.17C33.9641 143.542 31.5846 145.007 18.6806 153.792C13.0065 157.728 10.9016 158.002 8.97971 154.982C6.05112 150.498 5.50201 125.696 8.15604 111.786C8.4306 110.047 8.52209 108.674 8.24756 108.674C7.97299 108.674 6.87479 112.335 5.8681 116.819ZM94.1829 116.178C95.5556 121.303 95.2811 123.774 93.0847 129.266C92.5356 130.547 93.4507 130.181 96.4708 127.71C106.904 119.29 113.036 117.094 119.625 119.656C123.652 121.12 122.279 119.839 117.245 117.277C114.134 115.721 109.192 114.348 103.701 113.524C98.9418 112.792 94.6405 111.877 94.1829 111.42C92.8101 110.047 92.8101 110.687 94.1829 116.178ZM235.12 125.147C226.701 129.815 226.518 129.998 226.06 133.75C225.786 135.763 225.328 138.6 224.962 139.882C222.857 148.027 237.591 146.745 257.176 137.045C266.42 132.469 271.545 128.167 270.995 125.33C270.538 123.134 265.23 120.388 259.922 119.748C250.587 118.649 244.638 119.931 235.12 125.147ZM109.375 121.487C107.27 122.493 103.152 125.056 100.223 127.252C97.386 129.449 94.1829 131.737 93.1762 132.286C91.6204 133.109 92.3525 133.292 97.0199 133.384C104.982 133.384 111.571 135.031 114.683 137.685C117.703 140.156 118.252 143.451 116.056 145.281C113.859 147.112 114.957 147.295 120.723 145.739C128.319 143.817 132.803 144 140.491 146.837C146.44 149.033 148.544 149.308 159.527 149.399C170.875 149.491 172.339 149.674 177.281 151.962C180.21 153.335 184.603 155.897 187.165 157.728C189.636 159.558 191.832 160.931 192.016 160.748C192.473 160.199 197.049 146.471 197.049 145.373C197.049 143.542 188.263 136.038 182.955 133.384C176.64 130.181 173.895 129.998 160.35 132.103C146.348 134.116 138.386 132.377 126.397 124.507C122.828 122.127 117.062 119.748 114.683 119.748C113.951 119.748 111.571 120.48 109.375 121.487ZM213.614 124.141C211.692 126.062 208.214 128.35 205.926 129.266C201.442 130.913 201.533 130.821 200.161 139.699C199.703 142.902 199.795 143.542 200.801 142.993C201.533 142.627 207.116 139.149 213.339 135.397C222.949 129.449 224.504 128.259 223.955 126.612C223.406 124.598 219.471 120.571 218.007 120.571C217.549 120.571 215.627 122.127 213.614 124.141ZM208.031 124.232C206.292 125.696 205.286 126.886 205.743 126.978C206.292 126.978 208.123 125.788 209.862 124.232C211.6 122.768 212.607 121.578 212.149 121.487C211.6 121.487 209.77 122.676 208.031 124.232ZM126.123 122.951C129.692 125.788 139.21 129.815 144.792 130.73C149.46 131.553 152.388 131.462 160.533 130.181C176.732 127.527 183.504 129.083 193.114 137.594L197.964 141.804V138.234C197.964 136.312 198.239 133.75 198.605 132.56C199.062 130.638 198.879 130.547 197.049 131.096C193.937 132.103 187.074 130.73 185.06 128.716C183.779 127.435 182.864 127.161 181.674 127.801C180.576 128.35 177.464 128.35 172.98 127.71C167.306 126.978 164.743 127.069 159.527 128.259C153.12 129.723 153.029 129.723 145.982 127.252C139.667 125.056 127.587 121.761 125.207 121.578C124.658 121.578 125.116 122.219 126.123 122.951ZM210.777 139.973C206.018 142.902 201.625 145.281 201.076 145.281C200.435 145.281 199.062 148.301 197.964 151.87C196.866 155.531 195.402 159.558 194.761 160.839C193.663 162.853 193.754 163.493 195.31 165.415C198.788 169.991 197.049 173.377 189.728 175.94C183.87 178.045 183.413 176.672 187.44 169.442L190.917 163.31L187.348 160.29C185.335 158.643 181.674 156.172 179.203 154.708C174.902 152.328 173.803 152.145 159.527 151.596C147.263 151.138 143.419 150.681 139.21 149.125C132.712 146.654 127.953 146.562 119.625 148.942C116.056 149.857 108.46 151.504 102.786 152.603C89.2409 154.982 83.0177 156.995 79.8146 160.016C76.5199 163.127 76.4284 165.232 79.6315 166.422C82.9262 167.703 88.6003 166.879 104.158 162.853C116.879 159.649 117.062 159.649 138.478 159.466C154.859 159.283 161.449 158.917 166.207 157.728C169.685 156.904 172.888 156.446 173.346 156.812C174.627 157.545 169.594 163.31 164.56 166.788C161.998 168.527 157.879 170.449 155.317 171.089L150.649 172.279L155.317 174.201C157.879 175.208 165.018 177.77 171.241 179.783C182.223 183.536 182.589 183.536 186.799 182.346C192.656 180.607 197.873 175.94 205.469 165.69C208.946 160.839 213.705 155.714 216.176 153.975C219.379 151.687 220.752 149.949 221.21 147.844C221.942 144.091 221.301 143.634 218.739 145.922C217.641 146.929 214.895 148.942 212.607 150.406C210.319 151.779 206.75 154.616 204.645 156.629C202.449 158.643 200.435 160.016 200.161 159.649C199.337 158.826 201.442 153.884 204.553 149.216C207.116 145.373 213.98 141.254 219.928 140.156C222.125 139.699 222.857 138.875 223.589 136.221C224.87 131.462 224.779 131.187 221.942 133.018C220.569 133.933 215.536 137.045 210.777 139.973ZM83.1092 138.051C79.0824 139.516 75.7878 141.987 68.9239 148.484C59.3145 157.545 57.7587 158.368 44.2141 161.388C40.4619 162.212 34.6047 164.317 31.3101 165.964C25.636 168.984 18.8636 174.567 19.2297 175.94C19.3212 176.306 21.3346 177.953 23.7141 179.6L28.1069 182.529L30.6694 179.051C34.5132 173.652 39.5467 171.547 46.9596 172.004C52.8168 172.462 58.857 174.658 58.857 176.397C58.857 176.946 55.5623 177.312 51.1694 177.312C46.7766 177.312 41.9261 177.862 39.7297 178.685C35.886 179.966 31.4931 182.804 31.4016 183.902C31.4016 184.176 33.598 185.732 36.252 187.196C38.9061 188.752 42.3837 191.406 43.9395 193.237L46.8681 196.44L51.9931 193.877L57.1181 191.315L53.3659 190.674C48.4239 189.942 48.3324 187.288 53.0913 185.641C58.857 183.627 62.0601 180.516 65.7208 173.469C70.1137 165.141 77.7097 157.087 83.4753 154.616C87.5021 152.786 104.341 148.942 107.911 148.942C108.734 148.942 110.839 147.844 112.578 146.562C116.788 143.359 116.33 140.888 111.022 138.143C105.348 135.306 90.6137 135.214 83.1092 138.051ZM206.567 150.132C202.54 154.891 202.54 156.263 206.567 152.969C208.306 151.504 211.783 148.85 214.346 147.112C216.908 145.373 219.013 143.634 219.013 143.268C219.013 141.529 209.404 146.929 206.567 150.132ZM223.864 148.667C224.504 149.216 228.165 148.118 228.165 147.295C228.165 146.929 227.25 146.196 226.06 145.739C224.413 145.007 223.955 145.098 223.772 146.471C223.589 147.386 223.681 148.393 223.864 148.667ZM214.346 158.734C212.058 161.205 208.306 165.781 206.018 169.076C200.71 176.58 195.768 181.339 191.1 183.444L187.44 185.091L191.283 185.366C202.815 186.19 211.143 178.594 217.641 161.388C218.922 158.094 219.928 155.074 219.928 154.891C219.928 153.609 218.007 154.891 214.346 158.734ZM166.39 159.649C163.004 160.748 156.232 161.297 139.393 161.754C117.611 162.395 116.605 162.578 104.25 165.781C97.203 167.612 90.3391 169.076 88.8748 169.076C85.6717 169.076 85.5802 170.266 88.6918 172.279C92.078 174.475 103.152 174.292 121.547 171.821C130.699 170.54 138.111 170.083 141.223 170.357C151.015 171.455 165.109 166.696 169.411 160.839C170.509 159.375 171.332 158.094 171.241 158.094C171.058 158.094 168.861 158.826 166.39 159.649ZM70.2052 170.174C65.1717 180.15 62.1516 184.176 57.7587 186.373L53.8235 188.386L59.6806 187.929C67.2766 187.379 74.415 183.17 79.1739 176.306C83.3838 170.449 83.5668 169.076 79.9061 169.076C77.7097 169.076 76.703 168.435 75.5132 166.33C74.6896 164.866 73.8659 163.585 73.7744 163.585C73.5913 163.585 72.0355 166.605 70.2052 170.174ZM190.368 169.533C187.806 174.109 188.721 174.933 192.748 171.821C194.853 170.174 195.036 169.625 194.12 167.703C193.571 166.422 193.022 165.415 192.839 165.415C192.748 165.415 191.558 167.245 190.368 169.533ZM116.056 175.574C109.1 176.672 101.23 177.312 97.0199 177.129L89.8815 176.855L87.6851 183.261C83.1092 196.257 67.2766 215.018 56.6605 219.96L51.9931 222.156L60.6873 221.882C74.8726 221.424 82.2855 216.848 95.0065 200.65C106.812 185.641 113.402 181.156 124.658 180.241C127.953 179.966 131.522 179.234 132.62 178.594C133.627 177.862 138.203 176.763 142.687 176.123C150.375 174.933 150.649 174.841 147.172 174.201C145.158 173.835 143.053 173.377 142.596 173.286C140.399 172.737 127.038 173.926 116.056 175.574ZM83.4753 174.658C82.5601 176.397 82.6516 176.489 84.665 175.94C87.319 175.116 87.5021 174.933 86.7699 173.743C85.8547 172.187 84.665 172.554 83.4753 174.658ZM41.194 173.743C39.2721 174.201 36.4351 175.94 34.7878 177.404L31.8592 180.15L35.4284 178.136C37.9909 176.58 41.194 175.94 47.3257 175.482C53.8235 175.025 55.0132 174.75 52.9083 174.201C51.3525 173.835 49.7052 173.377 49.2476 173.194C47.4172 172.554 44.5802 172.737 41.194 173.743ZM137.288 178.319C135.274 178.868 133.902 179.417 134.085 179.692C134.268 179.875 139.21 180.699 144.975 181.431C150.741 182.254 156.14 183.078 156.964 183.353C158.978 183.993 159.069 182.071 157.147 179.326C155.866 177.495 154.951 177.312 148.27 177.312C144.152 177.312 139.21 177.77 137.288 178.319ZM160.716 180.882C161.632 183.444 162.089 183.627 168.404 184.268C172.156 184.542 175.359 184.634 175.634 184.359C176 183.993 161.998 178.411 160.259 178.319C159.984 178.228 160.167 179.417 160.716 180.882ZM77.6181 182.895C74.0489 185.549 66.1784 190.033 60.1382 192.962C54.0065 195.891 48.3324 199.185 47.5087 200.283C46.6851 201.473 46.0444 203.853 46.0444 205.591V208.703L48.0578 206.873C49.2476 205.775 54.7386 202.205 60.2297 199.002C65.8123 195.708 72.6762 191.132 75.5132 188.752C80.6382 184.542 86.2208 178.228 84.7565 178.228C84.2989 178.228 81.0958 180.333 77.6181 182.895ZM17.5824 183.078C19.0467 187.562 20.877 188.844 23.8971 187.745C27.2833 186.556 27.0087 185.366 22.2498 181.705C17.5824 178.045 16.1181 178.502 17.5824 183.078ZM127.038 187.562C123.194 195.891 124.201 206.141 129.417 210.808C134.725 215.567 140.949 214.286 148.27 206.964C153.12 202.114 158.245 192.962 158.795 188.295C159.069 186.098 158.886 186.007 148.087 184.542C142.047 183.719 135.366 182.987 133.169 182.895C129.326 182.804 129.234 182.895 127.038 187.562ZM115.049 185.091C110.656 186.922 104.433 193.054 95.8302 204.036C83.9329 219.228 76.0623 223.895 61.1449 224.81L52.9083 225.359L57.3927 228.013C59.8637 229.569 63.982 231.308 66.5445 231.949C71.944 233.321 87.2275 233.596 87.2275 232.223C87.2275 231.766 91.3458 227.83 96.2878 223.437C107.361 213.828 112.395 206.964 116.147 196.074C117.703 191.589 119.442 187.745 120.082 187.562C120.632 187.379 121.364 188.478 121.638 190.033C122.279 193.054 123.835 193.969 123.835 191.223C123.835 190.308 124.658 188.02 125.665 186.098L127.404 182.62L122.736 183.17C120.174 183.536 116.696 184.359 115.049 185.091ZM68.7409 196.806C44.6717 211.449 45.5869 210.533 48.2409 216.848L49.7052 220.234L53.3659 218.679C62.2431 215.018 75.6047 201.199 82.194 188.935L85.6717 182.346L80.0891 187.837C76.9775 190.857 71.8525 194.884 68.7409 196.806ZM27.9239 191.315C27.6494 195.067 28.0154 195.982 30.3949 198.362C33.3235 201.29 37.3503 201.931 41.8346 200.192C46.136 198.636 44.3971 195.891 35.3369 189.576C29.4797 185.549 28.29 185.824 27.9239 191.315ZM119.259 193.786C119.259 196.897 115.598 205.5 111.754 211.266C109.558 214.469 104.25 220.143 99.3994 224.353C94.732 228.379 91.2543 231.857 91.7119 232.04C93.0847 232.498 103.792 229.478 107.453 227.647C112.669 224.902 116.422 221.424 119.259 216.299C121.547 212.364 122.004 210.625 122.004 205.225C122.004 197.629 121.181 191.955 120.082 191.955C119.625 191.955 119.259 192.779 119.259 193.786ZM123.011 211.357C122.919 212.364 123.469 212.73 124.75 212.364C125.848 212.089 126.397 211.357 126.123 210.808C125.848 210.259 125.39 208.978 125.024 208.062C124.475 206.232 124.475 206.232 123.743 208.062C123.377 208.978 123.011 210.442 123.011 211.357ZM41.4686 219.685C41.4686 225.451 48.2409 234.237 56.569 239.087C62.3346 242.565 70.3882 243.022 83.8414 240.917C93.7253 239.27 93.9998 239.179 91.1628 238.08C89.607 237.348 88.0512 236.433 87.6851 235.975C87.4106 235.426 84.8481 235.243 81.3704 235.609C63.4329 237.257 49.4306 229.203 44.6717 214.377C44.1226 212.638 44.0311 212.638 42.8413 214.835C42.1092 216.116 41.5601 218.312 41.4686 219.685ZM106.629 229.935C103.975 231.308 99.0333 232.864 95.6472 233.504C89.5155 234.694 89.5155 234.694 92.261 235.884C93.7253 236.525 97.6606 237.165 100.955 237.165C108.46 237.257 111.388 235.335 115.415 227.83C117.062 224.81 118.344 222.065 118.344 221.607C118.344 221.241 116.788 222.339 114.866 224.17C113.036 226 109.283 228.654 106.629 229.935Z" fill="#6A6D6E"/>
</svg>
