<svg width="320" height="279" viewBox="0 0 320 279" fill="none" xmlns="http://www.w3.org/2000/svg">
<path d="M248.343 3.78009C243.684 5.93027 240.101 8.79712 240.101 10.2306C240.101 15.2476 168.429 71.51 158.395 74.7352C151.944 76.527 142.985 75.8103 134.026 72.5851C117.183 66.493 106.074 66.1346 95.6819 71.51C91.3816 73.6602 69.1633 94.8033 46.5867 118.455L5.37539 161.817L6.45047 84.0526C7.16719 32.4488 6.09211 6.64697 3.58359 6.64697C1.07508 6.64697 0 51.0835 0 142.823V279L182.047 278.283C282.029 277.925 340.8 276.85 312.848 276.491L261.602 275.058V162.175V49.2917L244.759 50.3668L227.558 51.4419L226.483 163.25C225.766 273.266 225.408 275.416 218.241 275.416C211.074 275.416 211.074 273.983 212.149 178.659L213.224 81.9024H196.381H179.18V178.659C179.18 272.908 179.18 275.416 172.012 275.416C165.204 275.416 164.845 272.908 164.845 200.161V124.906H148.719H132.593V200.161C132.593 272.908 132.235 275.416 125.426 275.416C118.617 275.416 118.259 272.908 118.259 227.038V178.659H102.132H86.0062V227.038C86.0062 272.908 85.6479 275.416 78.8391 275.416C72.0302 275.416 71.6719 272.908 71.6719 226.68V178.301L54.829 179.376L37.6277 180.451L36.5527 227.755L35.4776 275.416H21.5016H7.16719V221.304V167.192L48.7369 123.114C96.3987 72.2267 103.207 68.2848 130.801 76.8854C141.194 80.469 153.736 81.9024 158.753 80.469C163.77 79.3939 184.555 64.7012 205.34 47.8583C226.125 31.0154 244.401 17.3977 246.551 17.3977C248.343 17.3977 252.643 13.4558 255.869 8.43878C262.319 -1.23694 260.527 -2.31201 248.343 3.78009ZM252.285 68.2848C255.51 72.5851 256.944 76.8854 256.227 77.9605C254.077 80.1106 232.934 60.0425 232.934 56.1006C232.934 51.0835 246.193 59.6841 252.285 68.2848ZM247.268 76.527C253.718 83.3358 258.377 89.7863 257.66 90.8614C256.585 91.5781 249.418 86.2027 241.893 78.3188C234.009 70.4349 229.35 63.9845 231.5 63.9845C233.65 63.9845 240.459 69.7182 247.268 76.527ZM256.227 103.046C253.718 105.196 236.876 89.0696 232.217 80.1106C230.067 76.1687 235.084 79.3939 243.326 86.9194C251.21 94.8033 256.944 101.971 256.227 103.046ZM198.173 91.5781C204.982 97.6702 205.34 97.6702 203.19 91.5781C201.756 88.3529 202.473 85.486 204.265 85.486C206.057 85.486 207.132 90.503 207.132 96.2368L206.773 107.346L196.381 97.6702C191.006 92.2948 186.347 87.2778 186.347 86.5611C186.347 83.6942 191.722 86.2027 198.173 91.5781ZM247.268 101.612C253.718 108.421 258.377 114.871 257.66 115.947C256.585 116.663 249.418 111.288 241.893 103.404C234.009 95.5201 229.35 89.0696 231.5 89.0696C233.65 89.0696 240.459 94.8033 247.268 101.612ZM197.456 102.687C203.19 108.421 207.132 116.305 207.132 122.397V132.789L194.947 120.964C179.538 105.912 178.821 98.7453 194.589 112.721L206.057 123.114L194.589 110.571C177.029 91.2198 179.896 84.4109 197.456 102.687ZM256.227 128.131C253.718 130.281 229.35 106.629 229.35 101.971C229.35 99.8204 235.8 104.479 243.684 112.363C251.568 119.888 256.944 127.056 256.227 128.131ZM247.268 127.414C254.077 135.298 257.302 141.39 254.793 142.107C252.643 142.823 251.927 145.332 253.36 147.482C256.944 152.858 257.302 167.909 254.077 167.909C249.776 167.909 228.633 142.107 231.142 139.957C232.217 138.882 237.234 142.107 242.251 147.482C247.268 152.858 252.285 157.158 253.36 157.158C254.793 157.158 249.418 150.707 241.893 142.823C227.558 128.131 227.917 122.397 242.609 136.373C247.268 140.673 250.852 142.107 250.852 139.957C250.852 137.806 246.91 133.148 242.251 130.281C237.592 127.056 232.575 122.039 231.5 119.172C227.917 109.854 235.442 113.796 247.268 127.414ZM207.132 148.916V157.875L195.306 146.407C188.139 139.598 183.838 131.714 183.838 125.981V117.022L195.306 128.489C202.473 135.298 207.132 143.182 207.132 148.916ZM156.961 137.09C159.828 140.673 161.978 157.158 159.828 157.158C159.47 157.158 153.736 151.782 147.286 144.974L135.46 132.789H144.777C149.794 132.789 155.17 134.94 156.961 137.09ZM161.262 169.342C161.262 171.134 155.886 168.267 149.794 162.175L137.968 151.782L149.436 164.325C156.245 172.209 160.545 180.451 160.545 186.902V197.294L148.361 185.468C132.951 170.417 132.235 163.25 148.002 177.226L159.47 187.618L148.002 175.076C141.194 167.192 136.893 158.95 136.893 152.499L137.252 142.107L149.077 153.933C155.886 160.383 161.262 167.192 161.262 169.342ZM207.848 169.342C207.848 171.134 202.473 168.267 196.381 162.175L184.555 151.782L196.023 164.325C202.831 172.209 207.132 180.451 207.132 186.902V197.294L194.947 185.468C179.538 170.417 178.821 163.25 194.589 177.226L206.057 187.618L194.589 175.076C187.78 167.192 183.48 158.95 183.48 152.499L183.838 142.107L195.664 153.933C202.473 160.383 207.848 167.192 207.848 169.342ZM247.268 166.117C253.718 172.926 258.377 179.376 257.66 180.451C256.585 181.168 249.418 175.793 241.893 167.909C234.009 160.025 229.35 153.574 231.5 153.574C233.65 153.574 240.459 159.308 247.268 166.117ZM256.227 192.635C253.718 194.786 236.876 178.659 232.217 169.7C230.067 165.758 235.084 168.984 243.326 176.509C251.21 184.393 256.944 191.56 256.227 192.635ZM247.268 191.202C253.718 198.011 258.377 204.461 257.66 205.536C256.585 206.253 249.418 200.878 241.893 192.994C234.009 185.11 229.35 178.659 231.5 178.659C233.65 178.659 240.459 184.393 247.268 191.202ZM65.2214 187.618C65.9381 186.902 66.6548 189.41 66.6548 192.994C66.6548 201.594 65.2214 201.953 56.6208 194.069C48.0201 186.543 48.3785 180.81 56.9791 185.468C60.5627 187.618 64.1463 188.335 65.2214 187.618ZM114.675 192.994C114.675 198.011 109.658 197.294 104.641 192.277C97.8321 185.468 99.6239 181.526 107.508 185.827C111.45 187.977 114.675 191.202 114.675 192.994ZM160.545 213.42V222.379L148.719 210.912C141.552 204.103 137.252 196.219 137.252 190.485V181.526L148.719 192.994C155.886 199.803 160.545 207.687 160.545 213.42ZM206.773 211.987V222.021L195.306 210.912C188.497 204.461 183.838 195.861 183.838 190.844V182.243L195.306 192.277C203.548 199.086 206.773 204.82 206.773 211.987ZM68.0883 212.345C68.0883 214.137 62.3545 210.553 55.5457 203.745C48.7369 196.936 43.0031 190.127 43.0031 187.977C43.0031 186.185 48.7369 189.769 55.5457 196.577C62.3545 203.386 68.0883 210.195 68.0883 212.345ZM104.641 195.502C110.016 200.878 114.675 206.611 114.675 208.762C114.675 210.553 110.016 207.687 103.924 201.953C98.1905 196.219 93.1734 193.352 93.1734 195.144C93.1734 197.294 97.8321 203.386 103.566 208.762C109.3 214.495 113.958 222.379 113.958 227.396V236.714L102.132 225.246C92.8151 215.929 90.3065 211.27 90.6649 199.803C90.6649 192.277 91.74 185.827 92.8151 185.827C93.8901 185.827 99.2655 190.127 104.641 195.502ZM256.227 217.721C253.718 219.871 229.35 196.219 229.35 191.56C229.35 189.41 235.8 194.069 243.684 201.953C251.568 209.478 256.944 216.645 256.227 217.721ZM66.2965 224.888C65.2214 225.604 60.2044 222.738 54.4706 217.721C47.3034 211.27 47.6618 212.345 56.6208 222.021C71.6719 238.505 71.3135 244.239 55.9041 229.188C48.7369 222.021 44.0782 214.137 44.0782 208.403V199.444L55.9041 211.27C62.7129 217.721 67.3716 223.813 66.2965 224.888ZM247.268 216.645C253.36 223.813 257.66 230.622 256.585 231.697C254.077 233.847 237.234 218.796 232.575 209.837C226.483 199.086 235.084 203.028 247.268 216.645ZM160.187 245.314V261.44L149.077 251.406L137.968 241.372L149.794 253.915C165.204 271.116 164.845 280.075 149.077 265.024C140.118 256.423 136.893 249.973 136.893 242.447L137.252 232.055L147.644 241.731C153.019 247.106 157.678 249.973 157.678 247.823C157.678 245.673 153.019 239.939 147.286 235.28C140.477 229.546 137.252 223.096 137.252 216.645V206.611L148.719 218.079C158.395 227.396 160.187 232.055 160.187 245.314ZM207.132 238.505V247.464L195.306 235.997C188.139 229.188 183.838 221.304 183.838 215.57V206.611L195.306 218.079C202.473 224.888 207.132 232.772 207.132 238.505ZM245.834 229.188C255.152 238.864 260.527 257.498 254.077 257.498C251.21 257.498 229.35 233.13 229.35 229.905C229.35 228.471 234.009 231.697 239.384 237.072C255.152 252.481 257.302 248.181 241.893 232.413C234.367 224.529 229.708 218.079 231.5 218.079C233.65 218.079 239.742 223.096 245.834 229.188ZM113.958 252.84V261.799L102.132 250.331C94.9652 243.522 90.6649 235.639 90.6649 229.905V220.946L102.132 232.413C109.3 239.222 113.958 247.106 113.958 252.84ZM66.2965 249.973C65.2214 250.69 60.2044 247.823 54.4706 242.806C47.3034 236.355 47.6618 237.43 56.6208 247.106C71.6719 263.591 71.3135 269.324 55.9041 254.273C48.7369 247.106 44.0782 239.222 44.0782 233.488V224.529L55.9041 236.355C62.7129 242.806 67.3716 248.898 66.2965 249.973ZM207.848 258.932C207.848 260.724 202.115 257.14 195.306 250.331C188.497 243.522 182.763 236.714 182.763 234.563C182.763 232.772 188.497 236.355 195.306 243.164C202.115 249.973 207.848 256.782 207.848 258.932ZM247.268 255.707C253.718 262.515 258.377 268.966 257.66 270.041C256.585 270.758 249.418 265.382 241.893 257.498C234.009 249.615 229.35 243.164 231.5 243.164C233.65 243.164 240.459 248.898 247.268 255.707ZM114.675 271.833C114.675 273.266 109.3 274.341 102.849 274.341C91.3816 274.341 91.0233 273.625 90.6649 260.007L90.3065 246.031L102.491 257.857C109.3 264.307 114.675 270.758 114.675 271.833ZM197.814 256.423C203.19 261.799 207.848 268.608 207.848 271.474C207.848 275.058 203.548 272.55 195.306 264.666C183.48 253.198 179.896 246.748 185.272 246.748C186.705 246.748 192.439 251.048 197.814 256.423ZM56.9791 262.157L68.4466 274.341L57.3375 274.7C50.1703 274.7 45.5116 272.55 43.0031 267.891C38.3444 259.29 41.928 259.29 51.6037 267.174C58.0542 272.55 58.0542 272.191 51.2454 264.307C43.7198 256.423 40.853 250.331 44.0782 250.331C44.7949 250.331 50.5287 255.707 56.9791 262.157ZM241.534 263.949L251.21 274.341L240.101 274.7C234.367 274.7 229.35 273.266 229.35 271.116C229.35 269.324 231.858 268.249 234.725 269.683C239.384 271.474 239.384 270.399 234.367 262.874C226.483 251.048 229.35 251.406 241.534 263.949ZM152.303 274.7C149.794 277.208 136.177 264.307 136.177 260.007C136.177 257.857 140.118 260.007 145.136 264.666C150.153 269.324 153.378 273.983 152.303 274.7ZM198.889 274.7C196.381 277.208 182.763 264.307 182.763 260.007C182.763 257.857 186.705 260.007 191.722 264.666C196.739 269.324 199.964 273.983 198.889 274.7Z" fill="#6A6D6E"/>
</svg>
