<svg width="120" height="39" viewBox="0 0 120 39" fill="none" xmlns="http://www.w3.org/2000/svg">
<path d="M18.6419 0V4.67982C26.3235 4.74543 32.5311 11.3278 32.5311 19.4409C32.5311 27.5978 26.2612 34.2021 18.5173 34.2021C10.7733 34.2021 4.50345 27.5978 4.50345 19.4409C4.50345 19.3535 4.52421 18.2819 4.52421 17.9102V6.73545C1.82525 10.125 0.0605469 14.6955 0.0605469 19.4409C0.0605469 30.1783 8.32352 38.9038 18.5381 38.9038C28.7526 38.9038 37.0156 30.2002 37.0156 19.4409C36.974 8.74733 28.7733 0.065605 18.6419 0Z" fill="#EE265D"/>
<path d="M9.48486 19.2222C9.48486 21.6933 10.3984 24.0551 12.0177 25.8483L13.6371 27.6415V19.8564C13.6371 19.3315 13.7202 18.8067 13.8447 18.3475L13.907 18.1506C14.5714 16.1606 16.3776 14.7392 18.4952 14.7392C21.1734 14.7392 23.3534 17.0354 23.3534 19.8564V27.7727C24.3292 27.1823 28.0454 24.3613 27.5887 18.8286C27.5679 18.6317 27.5471 18.4349 27.5264 18.2381C26.7167 12.443 21.3395 8.8566 16.0454 10.7373C15.4641 10.956 13.7617 11.6995 13.7617 11.6995V5.57635C12.1838 6.1668 10.7513 7.0634 9.48486 8.17869V19.2222Z" fill="#EE265D"/>
<path d="M9.48486 2.47111V8.15687C10.7513 7.04159 12.1838 6.14499 13.7617 5.55454V0.656036C12.2461 1.07153 10.8136 1.68385 9.48486 2.47111Z" fill="#EE265D"/>
<path d="M59.2714 13.799C60.4548 15.1767 61.0569 17.123 61.0569 19.6378V30.2658H56.6763V20.1845C56.6763 18.7412 56.3233 17.6041 55.6174 16.7949C54.9116 15.9858 53.9358 15.5922 52.7109 15.5922C51.4652 15.5922 50.4479 16.0296 49.7005 16.8824C48.9531 17.7353 48.5794 18.9818 48.5794 20.5782V30.2658H44.1572V5.86078H48.5794V15.6578C49.0361 14.4332 49.8043 13.471 50.8423 12.7712C51.9012 12.0714 53.1053 11.7434 54.4963 11.7434C56.4686 11.7215 58.0673 12.4213 59.2714 13.799Z" fill="#B0B0B0"/>
<path d="M75.4861 12.8587C76.5241 13.5804 77.2715 14.5644 77.7075 15.7891V12.0058H82.0881V30.2659H77.7075V26.4389C77.2715 27.6636 76.5241 28.6476 75.4861 29.3912C74.448 30.1347 73.1816 30.5065 71.7283 30.5065C70.275 30.5065 68.9463 30.1347 67.7836 29.3912C66.621 28.6476 65.7075 27.5542 65.0432 26.1328C64.3788 24.7113 64.0674 23.0493 64.0674 21.1468C64.0674 19.2443 64.3996 17.5604 65.0432 16.1608C65.7075 14.7394 66.621 13.6678 67.7836 12.9024C68.9463 12.1589 70.275 11.7872 71.7283 11.7872C73.1816 11.7653 74.4272 12.1152 75.4861 12.8587ZM69.7767 17.2324C68.9463 18.1727 68.531 19.4848 68.531 21.1249C68.531 22.7651 68.9463 24.0553 69.7767 24.9956C70.6072 25.936 71.7075 26.3952 73.0985 26.3952C74.4272 26.3952 75.5276 25.9141 76.3996 24.9519C77.2715 23.9897 77.7075 22.7213 77.7075 21.1031C77.7075 19.4848 77.2715 18.1946 76.3996 17.2324C75.5276 16.2702 74.4272 15.7891 73.0985 15.7891C71.7283 15.8109 70.6072 16.292 69.7767 17.2324Z" fill="#B0B0B0"/>
<path d="M97.1405 13.4491C98.4069 14.5644 99.2166 16.0733 99.528 17.9321H95.3965C95.2304 17.0574 94.8567 16.3576 94.2754 15.8109C93.6941 15.286 92.9259 15.0236 91.9917 15.0236C91.2443 15.0236 90.663 15.2204 90.2477 15.5922C89.8325 15.9639 89.6249 16.4669 89.6249 17.1011C89.6249 17.6041 89.791 18.0196 90.1232 18.3257C90.4554 18.6319 90.8706 18.8724 91.3688 19.0474C91.8671 19.2223 92.5938 19.441 93.528 19.6816C94.836 19.9877 95.9156 20.3157 96.746 20.6438C97.5765 20.9718 98.2823 21.5185 98.8844 22.262C99.4865 23.0055 99.7772 23.9896 99.7772 25.2361C99.7772 26.7888 99.1958 28.0571 98.0332 29.0193C96.8706 29.9815 95.3135 30.4626 93.3619 30.4626C91.099 30.4626 89.2927 29.9378 87.9432 28.8663C86.5938 27.7947 85.7633 26.2858 85.4727 24.2958H89.708C89.8118 25.1924 90.1855 25.914 90.8291 26.417C91.4727 26.9418 92.3239 27.1824 93.3619 27.1824C94.1093 27.1824 94.6906 26.9856 95.0851 26.6138C95.4796 26.2202 95.6872 25.7391 95.6872 25.1049C95.6872 24.5801 95.5211 24.1427 95.1682 23.8147C94.8152 23.4866 94.4 23.2242 93.881 23.0493C93.3619 22.8743 92.6353 22.6556 91.701 22.4151C90.4138 22.1089 89.355 21.8028 88.5453 21.4748C87.7356 21.1467 87.0505 20.6438 86.4692 19.944C85.8879 19.2442 85.618 18.282 85.618 17.0355C85.618 15.461 86.1993 14.1707 87.3412 13.1867C88.483 12.2026 90.0816 11.6996 92.0955 11.6996C94.1716 11.7652 95.874 12.3119 97.1405 13.4491Z" fill="#B0B0B0"/>
<path d="M118.151 13.799C119.334 15.1767 119.936 17.123 119.936 19.6378V30.2658H115.556V20.1845C115.556 18.7412 115.203 17.6041 114.497 16.7949C113.791 15.9858 112.815 15.5922 111.59 15.5922C110.345 15.5922 109.327 16.0296 108.58 16.8824C107.832 17.7353 107.459 18.9818 107.459 20.5782V30.2658H103.037V5.86078H107.459V15.6578C107.916 14.4332 108.684 13.471 109.722 12.7712C110.781 12.0714 111.985 11.7434 113.376 11.7434C115.369 11.7215 116.967 12.4213 118.151 13.799Z" fill="#B0B0B0"/>
</svg>
