<svg width="119" height="39" viewBox="0 0 119 39" fill="none" xmlns="http://www.w3.org/2000/svg">
<g clip-path="url(#clip0_769_18687)">
<path d="M18.8285 0V4.59672C26.3738 4.66116 32.4711 11.1266 32.4711 19.0957C32.4711 27.1078 26.3126 33.5947 18.7062 33.5947C11.0997 33.5947 4.94116 27.1078 4.94116 19.0957C4.94116 19.0098 4.96155 17.9573 4.96155 17.5921V6.61584C2.31052 9.94524 0.577148 14.4346 0.577148 19.0957C0.577148 29.6424 8.6934 38.2129 18.7265 38.2129C28.7597 38.2129 36.8759 29.6639 36.8759 19.0957C36.8352 8.592 28.7801 0.06444 18.8285 0Z" fill="#EE265D"/>
<path d="M9.83398 18.8809C9.83398 21.3081 10.7313 23.628 12.3219 25.3893L13.9125 27.1507V19.5038C13.9125 18.9883 13.9941 18.4727 14.1164 18.0217L14.1776 17.8283C14.8302 15.8737 16.6043 14.4775 18.6844 14.4775C21.315 14.4775 23.4562 16.7329 23.4562 19.5038V27.2796C24.4147 26.6996 28.065 23.9287 27.6163 18.4942C27.5959 18.3009 27.5755 18.1076 27.5551 17.9143C26.7598 12.2221 21.4782 8.69934 16.278 10.5466C15.707 10.7614 14.0349 11.4917 14.0349 11.4917V5.47734C12.485 6.0573 11.0779 6.93798 9.83398 8.03346V18.8809Z" fill="#EE265D"/>
<path d="M9.83398 2.42724V8.01204C11.0779 6.91656 12.485 6.03588 14.0349 5.45592V0.644394C12.5462 1.05251 11.1391 1.65395 9.83398 2.42724Z" fill="#EE265D"/>
<path d="M58.7364 13.5539C59.8988 14.9072 60.4902 16.8189 60.4902 19.2891V29.7284H56.1874V19.8261C56.1874 18.4084 55.8407 17.2915 55.1473 16.4967C54.454 15.7019 53.4955 15.3153 52.2924 15.3153C51.0688 15.3153 50.0696 15.7449 49.3354 16.5826C48.6013 17.4203 48.2342 18.6447 48.2342 20.2127V29.7284H43.8906V5.7567H48.2342V15.3797C48.6829 14.1769 49.4374 13.2317 50.457 12.5444C51.4971 11.857 52.6798 11.5348 54.0461 11.5348C55.9834 11.5133 57.5537 12.2007 58.7364 13.5539Z" fill="#B0B0B0"/>
<path d="M74.6627 12.6304C75.6823 13.3392 76.4165 14.3058 76.8447 15.5087V11.7927H81.1475V29.7285H76.8447V25.9695C76.4165 27.1723 75.6823 28.1389 74.6627 28.8693C73.6431 29.5996 72.3991 29.9647 70.9716 29.9647C69.5442 29.9647 68.239 29.5996 67.097 28.8693C65.9551 28.1389 65.0578 27.0649 64.4052 25.6687C63.7527 24.2725 63.4468 22.6401 63.4468 20.7713C63.4468 18.9025 63.7731 17.2486 64.4052 15.8739C65.0578 14.4777 65.9551 13.4251 67.097 12.6733C68.239 11.943 69.5442 11.5779 70.9716 11.5779C72.3991 11.5564 73.6227 11.9001 74.6627 12.6304ZM69.0547 16.9264C68.239 17.85 67.8312 19.1388 67.8312 20.7498C67.8312 22.3608 68.239 23.6281 69.0547 24.5518C69.8704 25.4754 70.9512 25.9265 72.3176 25.9265C73.6227 25.9265 74.7035 25.4539 75.56 24.5088C76.4165 23.5637 76.8447 22.3179 76.8447 20.7283C76.8447 19.1388 76.4165 17.8715 75.56 16.9264C74.7035 15.9813 73.6227 15.5087 72.3176 15.5087C70.9716 15.5302 69.8704 16.0027 69.0547 16.9264Z" fill="#B0B0B0"/>
<path d="M95.9328 13.2103C97.1767 14.3057 97.9721 15.7879 98.2779 17.6137H94.2198C94.0567 16.7545 93.6896 16.0671 93.1186 15.5301C92.5476 15.0146 91.7931 14.7568 90.8754 14.7568C90.1413 14.7568 89.5703 14.9501 89.1625 15.3153C88.7546 15.6805 88.5507 16.1745 88.5507 16.7974C88.5507 17.2915 88.7138 17.6996 89.0401 18.0003C89.3664 18.301 89.7742 18.5373 90.2637 18.7091C90.7531 18.881 91.4668 19.0958 92.3845 19.3321C93.6692 19.6328 94.7296 19.955 95.5453 20.2772C96.361 20.5994 97.0544 21.1364 97.6458 21.8667C98.2372 22.597 98.5227 23.5636 98.5227 24.788C98.5227 26.3131 97.9517 27.5589 96.8097 28.504C95.6677 29.4491 94.1383 29.9217 92.2213 29.9217C89.9986 29.9217 88.2244 29.4062 86.8989 28.3537C85.5734 27.3011 84.7577 25.819 84.4722 23.8643H88.6323C88.7342 24.745 89.1013 25.4539 89.7335 25.9479C90.3656 26.4634 91.2017 26.6997 92.2213 26.6997C92.9555 26.6997 93.5265 26.5064 93.9139 26.1412C94.3014 25.7546 94.5053 25.282 94.5053 24.6591C94.5053 24.1436 94.3422 23.714 93.9955 23.3918C93.6488 23.0696 93.241 22.8118 92.7312 22.64C92.2213 22.4681 91.5076 22.2533 90.5899 22.0171C89.3256 21.7163 88.2856 21.4156 87.4903 21.0934C86.695 20.7712 86.022 20.2772 85.451 19.5898C84.88 18.9025 84.6149 17.9573 84.6149 16.733C84.6149 15.1864 85.1859 13.9191 86.3075 12.9525C87.4291 11.9859 88.9993 11.4919 90.9774 11.4919C93.0167 11.5563 94.6889 12.0933 95.9328 13.2103Z" fill="#B0B0B0"/>
<path d="M116.57 13.5539C117.732 14.9072 118.324 16.8189 118.324 19.2891V29.7284H114.021V19.8261C114.021 18.4084 113.674 17.2914 112.981 16.4967C112.287 15.7019 111.329 15.3153 110.126 15.3153C108.902 15.3153 107.903 15.7449 107.169 16.5826C106.435 17.4203 106.068 18.6447 106.068 20.2127V29.7284H101.724V5.75668H106.068V15.3797C106.516 14.1768 107.271 13.2317 108.291 12.5444C109.331 11.857 110.513 11.5348 111.88 11.5348C113.837 11.5133 115.408 12.2007 116.57 13.5539Z" fill="#B0B0B0"/>
</g>
<defs>
<clipPath id="clip0_769_18687">
<rect width="117.869" height="38.4879" fill="white" transform="translate(0.518066)"/>
</clipPath>
</defs>
</svg>
