<svg width="238" height="296" viewBox="0 0 238 296" fill="none" xmlns="http://www.w3.org/2000/svg">
<path d="M115.973 14.6666C117.658 29.0758 119.061 32.9354 120.745 30.6196C122.71 28.0465 119.061 9.91821e-05 116.535 9.91821e-05C114.851 9.91821e-05 114.57 5.66085 115.973 14.6666Z" fill="#6A6D6E"/>
<path d="M154.991 19.8125C147.132 33.9644 146.851 34.2217 150.5 32.4206C154.711 29.8475 165.658 10.2922 162.57 10.2922C161.167 10.2922 157.798 14.6664 154.991 19.8125Z" fill="#6A6D6E"/>
<path d="M66.5698 17.2399C66.5698 22.3861 77.5171 44.5144 77.7978 39.6256C77.7978 33.9649 70.2189 15.4388 67.9733 15.4388C67.1312 15.4388 66.5698 16.2107 66.5698 17.2399Z" fill="#6A6D6E"/>
<path d="M185.306 39.1109C180.253 42.4559 176.042 46.0582 176.042 47.0874C176.042 49.6605 192.042 41.1694 196.253 36.5379C201.025 31.649 195.13 32.9356 185.306 39.1109Z" fill="#6A6D6E"/>
<path d="M103.623 44.7715C67.9743 55.5784 46.9219 83.6249 46.9219 120.934C46.9219 139.203 50.8517 151.554 67.9743 187.32C76.9566 205.846 78.6408 212.536 80.325 236.465C82.5706 266.57 86.5003 275.061 102.219 284.324C106.711 286.897 111.202 290.5 112.325 292.558C116.535 298.991 129.167 296.16 139.833 286.125C154.991 271.974 157.236 266.055 159.201 238.009C160.885 213.308 161.447 210.992 176.605 182.688C185.025 166.478 193.727 146.922 195.692 139.203C200.464 120.934 197.938 94.1745 190.639 80.7945C174.078 50.9469 135.903 35.2512 103.623 44.7715ZM153.307 54.0346C175.762 64.5842 190.078 84.9114 192.324 109.87C194.008 130.969 190.078 144.607 171.833 180.115C156.114 210.477 150.219 230.033 152.745 242.383C154.149 248.559 153.307 249.331 144.044 251.132C138.149 251.904 132.816 251.904 131.693 250.874C130.57 250.102 129.728 236.465 129.728 221.027C129.728 195.296 130.289 192.723 135.623 189.121C141.798 185.261 146.851 168.793 141.237 170.595C139.552 171.109 138.149 174.454 138.149 178.314C137.868 181.916 136.745 186.033 135.623 187.062C134.219 188.091 134.219 186.29 135.342 182.945C136.745 178.828 136.465 177.542 134.219 178.571C132.535 179.6 131.131 182.173 131.131 183.975C131.131 186.29 129.447 187.062 126.64 186.033C122.991 184.746 122.43 182.173 124.114 172.91C125.798 162.361 125.517 161.332 121.588 164.419C119.061 166.478 117.096 170.595 117.096 173.94C117.096 182.173 111.763 184.232 106.991 177.799C102.5 172.138 94.6406 170.337 94.6406 174.969C94.6406 176.513 98.009 180.63 102.5 184.232C109.798 190.665 110.079 191.951 111.202 221.541C112.044 255.249 112.325 254.734 94.9213 249.331C87.0617 246.757 86.2197 245.471 86.2197 235.436C86.2197 218.711 80.8864 198.898 71.6233 180.115C44.6763 126.338 45.7991 93.4025 75.2724 66.3853C96.8862 46.5727 127.482 41.6839 153.307 54.0346ZM125.237 205.846C122.991 218.454 123.553 230.29 127.202 246.243C128.324 251.132 127.202 252.161 121.026 252.161C113.728 252.161 113.728 252.161 115.693 235.951C116.816 227.202 116.254 212.536 114.57 203.273C111.202 185.004 114.57 179.086 123.272 187.32C127.202 190.922 127.482 194.01 125.237 205.846ZM122.43 254.991C134.219 254.991 146.008 254.219 148.815 253.447C152.184 252.161 153.587 252.933 153.587 255.506C153.587 261.681 148.535 263.482 125.517 265.284L104.465 267.085L127.763 266.827C140.394 266.57 150.78 267.085 150.78 267.857C150.78 271.716 139.833 277.634 128.324 280.207C116.816 282.78 116.535 282.78 126.36 281.751C132.535 281.237 136.184 281.751 135.342 283.295C131.973 287.927 113.167 285.868 105.026 279.693L97.1669 274.032L117.658 274.289C128.886 274.547 131.973 274.289 124.114 273.775C97.7283 271.974 92.9564 270.43 89.3073 263.482C86.2197 257.05 86.5003 256.792 92.395 258.336C96.0441 259.365 106.991 260.652 117.096 261.167L135.342 262.196L120.465 260.137C92.1143 255.763 86.2197 254.477 86.2197 252.161C86.2197 250.617 89.3073 250.874 93.7985 252.418C98.009 253.705 110.921 254.991 122.43 254.991Z" fill="#6A6D6E"/>
<path d="M145.167 62.7831C145.167 63.2977 150.781 68.7012 157.518 74.8766C173.237 89.543 181.096 110.385 176.325 126.853C173.237 138.174 174.64 142.548 178.851 136.373C184.465 128.396 181.938 101.894 174.64 88.2565C167.342 75.1339 145.167 55.8358 145.167 62.7831Z" fill="#6A6D6E"/>
<path d="M167.903 150.267C166.219 154.384 165.096 158.244 165.938 158.759C167.903 160.817 173.798 149.238 172.394 145.893C171.552 144.092 169.587 146.151 167.903 150.267Z" fill="#6A6D6E"/>
<path d="M17.4487 51.4617C16.6066 52.7483 17.4487 54.0348 19.4136 54.0348C21.3785 54.0348 28.1152 57.1225 33.7292 60.7248C39.6239 64.3271 45.2378 66.9002 45.7992 66.1282C47.2027 64.8417 35.9748 56.8652 25.3082 51.719C21.3785 49.9179 18.5715 49.6606 17.4487 51.4617Z" fill="#6A6D6E"/>
<path d="M217.307 74.8763C211.131 77.7067 206.921 80.7944 207.763 81.309C209.166 82.8528 232.184 72.8179 232.184 70.7594C232.184 68.4437 228.254 69.7302 217.307 74.8763Z" fill="#6A6D6E"/>
<path d="M0.606804 104.724C4.53658 108.327 32.8871 111.157 32.8871 108.069C32.8871 106.526 30.0801 105.496 26.7118 105.496C23.0627 105.496 15.2031 104.724 9.02776 103.953C1.4489 102.666 -1.35808 103.181 0.606804 104.724Z" fill="#6A6D6E"/>
<path d="M209.726 115.788C209.726 117.075 215.34 118.361 222.077 118.361C229.094 118.361 235.55 117.075 236.392 115.788C237.515 114.244 232.743 113.215 224.042 113.215C216.182 113.215 209.726 114.244 209.726 115.788Z" fill="#6A6D6E"/>
<path d="M20.2561 151.811L6.22119 153.612L21.0982 153.87C29.2385 154.127 35.6945 153.355 35.6945 151.811C35.6945 150.267 35.4138 149.495 35.1331 149.753C34.5717 149.753 28.1157 150.782 20.2561 151.811Z" fill="#6A6D6E"/>
<path d="M208.605 153.87C210.85 155.928 231.903 162.104 236.113 162.104C236.955 162.104 237.797 161.075 237.797 160.045C237.797 159.016 232.183 156.7 225.166 154.899C210.289 151.297 204.675 151.04 208.605 153.87Z" fill="#6A6D6E"/>
<path d="M55.3428 178.056C55.3428 179.086 57.8691 185.261 61.2374 192.208C64.3251 198.898 68.8163 212.021 71.0619 221.284L74.9917 238.009L73.5882 223.342C72.1847 209.19 63.483 183.974 57.8691 178.828C56.4656 177.542 55.3428 177.284 55.3428 178.056Z" fill="#6A6D6E"/>
<path d="M32.0448 186.805C25.8694 190.407 21.9396 194.009 22.7817 194.781C23.6238 195.553 30.3606 192.723 37.6587 188.091C44.9569 183.717 49.1674 180.115 46.9218 180.372C44.6762 180.372 37.9394 183.203 32.0448 186.805Z" fill="#6A6D6E"/>
<path d="M197.937 188.092C203.27 192.466 208.042 195.296 208.884 194.524C210.849 192.981 195.41 180.373 191.481 180.373C190.077 180.373 192.884 183.718 197.937 188.092Z" fill="#6A6D6E"/>
<path d="M165.097 247.015C164.535 247.787 163.974 250.617 163.693 253.447C161.728 267.342 158.36 275.061 151.904 280.465C148.255 283.81 145.167 287.669 145.167 288.956C145.167 290.5 148.255 288.956 152.184 285.611C160.605 278.406 168.465 260.137 166.781 251.904C166.219 248.559 165.377 246.243 165.097 247.015Z" fill="#6A6D6E"/>
</svg>
